<?xml version="1.0" encoding="UTF-8" standalone="no"?>
<!-- Generator: Adobe Illustrator 19.1.0, SVG Export Plug-In . SVG Version: 6.00 Build 0)  -->

<svg
   xmlns:dc="http://purl.org/dc/elements/1.1/"
   xmlns:cc="http://creativecommons.org/ns#"
   xmlns:rdf="http://www.w3.org/1999/02/22-rdf-syntax-ns#"
   xmlns:svg="http://www.w3.org/2000/svg"
   xmlns="http://www.w3.org/2000/svg"
   xmlns:sodipodi="http://sodipodi.sourceforge.net/DTD/sodipodi-0.dtd"
   xmlns:inkscape="http://www.inkscape.org/namespaces/inkscape"
   version="1.1"
   id="Layer_1"
   x="0px"
   y="0px"
   viewBox="-549 251 100 100"
   style="enable-background:new -549 251 100 100;"
   xml:space="preserve"
   inkscape:version="0.91 r13725"
   sodipodi:docname="ADLA-Icon.svg"><metadata
   id="metadata25"><rdf:RDF><cc:Work
       rdf:about=""><dc:format>image/svg+xml</dc:format><dc:type
         rdf:resource="http://purl.org/dc/dcmitype/StillImage" /></cc:Work></rdf:RDF></metadata><defs
   id="defs23">
		
		
		
		
	</defs><sodipodi:namedview
   pagecolor="#ffffff"
   bordercolor="#666666"
   borderopacity="1"
   objecttolerance="10"
   gridtolerance="10"
   guidetolerance="10"
   inkscape:pageopacity="0"
   inkscape:pageshadow="2"
   inkscape:window-width="640"
   inkscape:window-height="480"
   id="namedview21"
   showgrid="false"
   inkscape:zoom="2.36"
   inkscape:cx="50"
   inkscape:cy="50"
   inkscape:window-x="0"
   inkscape:window-y="0"
   inkscape:window-maximized="0"
   inkscape:current-layer="Layer_1" />
	<path
   style="fill:#a0a1a2"
   inkscape:connector-curvature="0"
   id="path5"
   d="m -466.3,342.8 -65.5,0 c -5,0 -9.1,-4.1 -9.1,-9.1 l 0,-65.5 c 0,-5 4.1,-9.1 9.1,-9.1 l 65.5,0 c 5,0 9.1,4.1 9.1,9.1 l 0,65.5 c 0,5 -4.1,9.1 -9.1,9.1 z m -65.5,-77.7 c -1.7,0 -3,1.4 -3,3 l 0,65.5 c 0,1.7 1.4,3 3,3 l 65.5,0 c 1.7,0 3,-1.4 3,-3 l 0,-65.5 c 0,-1.7 -1.4,-3 -3,-3 l -65.5,0 z" /><g
   id="g7">
			<path
   style="fill:#7a7a7a"
   inkscape:connector-curvature="0"
   id="path9"
   d="m -507.9,251.9 c -2.2,-1 -4.8,-1.2 -7.1,-0.3 -2.3,0.8 -4.2,2.5 -5.2,4.8 l -1.4,2.9 29.5,0 -15.8,-7.4 z" />
			<path
   style="fill:#7a7a7a"
   inkscape:connector-curvature="0"
   id="path11"
   d="m -449.6,285 c -0.8,-2.3 -2.5,-4.2 -4.8,-5.2 l -2.9,-1.4 0,29.6 7.4,-15.8 c 1.1,-2.3 1.2,-4.8 0.3,-7.2 z" />
			<path
   style="fill:#7a7a7a"
   inkscape:connector-curvature="0"
   id="path13"
   d="m -548.1,316.7 c -1,2.2 -1.2,4.8 -0.3,7.1 0.8,2.3 2.5,4.2 4.8,5.2 l 2.9,1.4 0,-29.5 -7.4,15.8 z" />
			<path
   style="fill:#7a7a7a"
   inkscape:connector-curvature="0"
   id="path15"
   d="m -483.3,350.1 c 1.2,0.6 2.6,0.9 3.9,0.9 1.1,0 2.1,-0.2 3.2,-0.6 2.3,-0.8 4.2,-2.5 5.2,-4.8 l 0,0 1.4,-2.9 -29.5,0 15.8,7.4 z" />
		</g><path
   style="fill:#ffffff"
   inkscape:connector-curvature="0"
   id="path17"
   d="m -531.8,265.1 c -1.7,0 -3,1.4 -3,3 l 0,65.5 c 0,1.7 1.4,3 3,3 l 65.5,0 c 1.7,0 3,-1.4 3,-3 l 0,-65.5 c 0,-1.7 -1.4,-3 -3,-3 l -65.5,0 z" /><path
   style="fill:#59b4d9"
   inkscape:connector-curvature="0"
   id="path19"
   d="m -484.6,294.7 0,0 -12.7,0 5.3,-17.7 c 0.1,-0.5 -0.1,-1 -0.5,-1.2 -0.1,-0.1 -0.3,-0.1 -0.4,-0.1 -0.3,0 -0.6,0.2 -0.8,0.4 l -20.5,29.9 c -0.2,0.3 -0.2,0.7 -0.1,1 0.2,0.3 0.5,0.5 0.9,0.5 l 12.3,0 -5.5,18 c -0.1,0.5 0.1,1 0.5,1.2 0.1,0.1 0.3,0.1 0.4,0.1 0.3,0 0.6,-0.2 0.8,-0.4 l 21.1,-30.2 c 0.1,-0.2 0.2,-0.4 0.2,-0.6 0,-0.5 -0.5,-0.9 -1,-0.9 z" />
</svg>