<?xml version="1.0" standalone="no"?>
<!DOCTYPE svg PUBLIC "-//W3C//DTD SVG 1.1//EN" "http://www.w3.org/Graphics/SVG/1.1/DTD/svg11.dtd">
<!--Generator: Xara Designer (www.xara.com), SVG filter version: 6.0.0.4-->
<svg stroke-width="0.501" stroke-linejoin="bevel" fill-rule="evenodd" xmlns:xlink="http://www.w3.org/1999/xlink" xmlns="http://www.w3.org/2000/svg" version="1.1" overflow="visible" width="600pt" height="600pt" viewBox="0 0 600 600">
 <defs>
	</defs>
 <g id="Document" fill="none" stroke="black" font-family="Times New Roman" font-size="16" transform="scale(1 -1)">
  <g id="Spread" transform="translate(0 -600)">
   <g id="Layer 1">
    <path d="M 122.589,198.484 L 121.939,203.123 L 123.823,207.192 L 121.843,210.892 L 112.893,212.915 L 110.171,206.93 L 103.271,186.23 L 98.567,182.439 L 83.307,185.169 L 71.523,192.251 L 74.021,203.03 L 66.577,202.191 L 53.793,209.582 L 48.677,216.352 L 48.529,216.607 L 49.412,227.583 L 60.607,241.361 L 60.944,258.868 L 58.571,261.418 L 53.978,262.618 L 46.773,274.634 L 45.391,282.997 L 55.994,294.234 L 56.153,294.322 L 65.216,299.759 L 59.523,287.08 L 59.377,278.61 L 63.439,276.926 L 68.151,282.567 L 77.242,293.473 L 94.421,304.579 L 115.101,310.371 L 115.143,310.373 L 115.44,310.408 L 121.869,312.159 L 131.604,321.819 L 137.615,323.235 L 154.571,340.279 L 179.091,344.963 L 198.221,338.479 L 216.758,320.323 L 224.021,311.029 L 221.921,306.379 L 219.483,304.294 L 234.221,293.63 L 231.59,316.452 L 232.315,325.631 L 232.461,325.791 L 251.326,339.502 L 251.572,339.502 L 260.321,334.879 L 265.271,318.379 L 267.221,302.179 L 265.571,278.03 L 258.821,261.38 L 246.371,246.98 L 228.812,242.299 L 217.553,243.593 L 212.471,234.68 L 207.221,228.83 L 198.314,227.278 L 191.328,228.976 L 183.906,234.009 L 180.141,232.981 L 180.101,232.869 L 180.44,230.639 L 183.989,225.913 L 185.044,224.214 L 189.085,215.718 L 189.901,202.159 L 191.921,192.53 L 184.489,188.682 L 167.193,188.724 L 162.728,190.514 L 162.507,190.77 L 161.393,193.36 L 157.485,194.932 L 150.819,189.397 L 138.685,182.215 L 122.589,198.484 Z" stroke-linejoin="miter" stroke="none" fill="#fad117" stroke-width="8.373" marker-start="none" marker-end="none" stroke-miterlimit="79.8403193612775"/>
    <path d="M 52.597,208.169 C 49.865,211.356 47.59,214.541 47.134,215.452 C 45.313,218.183 43.948,223.19 48.044,229.108 C 51.23,233.66 53.615,236.554 56.692,240.032 L 61.565,245.54 L 64.011,239.221 L 60.334,236.391 C 60.334,236.391 55.327,230.472 52.141,226.376 C 48.955,221.825 51.23,219.093 51.23,219.093 C 51.23,219.093 59.927,205.893 66.706,205.893 L 68.074,205.893 C 72.173,205.893 74.799,211.051 77.632,213.63 L 79.453,210.9 L 78.086,208.169 C 77.176,206.804 74.446,201.797 69.894,200.43 C 68.983,199.976 68.072,199.976 67.162,199.976 C 62.611,199.976 57.604,202.706 52.597,208.169 Z" stroke-linejoin="miter" stroke="none" fill-rule="evenodd" stroke-width="4.551" fill="#333333" marker-start="none" marker-end="none" stroke-miterlimit="79.8403193612775"/>
    <path d="M 161.406,189.256 C 159.135,191.538 159.599,194.724 159.601,195.633 L 164.537,200.377 L 165.06,194.71 C 165.06,194.71 164.598,191.525 167.785,191.517 L 185.082,191.475 C 187.812,191.468 189.639,193.74 189.645,196.472 C 189.652,199.201 187.382,201.939 187.382,201.939 C 187.382,201.939 187.86,211.04 186.958,214.23 C 184.253,221.736 183.292,223.655 179.245,228.72 L 181.283,234.427 L 186.535,227.432 C 187.441,226.063 191.069,220.137 191.971,216.494 C 192.873,213.305 192.403,207.388 192.394,203.748 C 193.756,201.923 194.661,199.645 194.654,196.914 C 194.639,190.996 190.531,186.455 185.069,186.468 L 167.773,186.51 C 165.04,186.517 162.767,187.432 161.406,189.256 Z" stroke-linejoin="miter" stroke="none" fill-rule="evenodd" stroke-width="4.551" fill="#333333" marker-start="none" marker-end="none" stroke-miterlimit="79.8403193612775"/>
    <path d="M 177.961,342.502 C 178.871,342.502 180.237,342.502 181.147,342.502 C 197.533,341.592 207.093,327.026 209.824,323.384 C 209.824,323.384 209.368,323.384 209.368,323.384 C 207.093,323.384 203.452,321.108 203.452,321.108 C 203.452,321.108 205.273,321.108 207.547,321.108 C 209.368,321.108 210.734,321.108 212.1,320.652 C 214.831,319.742 217.107,318.378 220.294,314.28 C 222.57,311.549 223.024,308.363 220.294,308.363 C 220.294,308.363 220.294,308.363 220.294,308.363 C 219.838,308.363 219.383,308.363 218.928,308.363 C 214.375,308.363 213.466,307.452 211.189,306.543 C 211.645,306.543 212.554,306.996 213.466,306.996 C 215.287,306.996 217.32,306.961 218.231,303.319 C 218.268,300.657 218.006,299.533 216.656,299.195 C 217.676,299.594 218.106,299.669 220.749,299.714 C 222.57,299.714 224.614,298.612 225.3,296.982 C 226.002,295.313 226.773,294.425 224.043,291.695 C 225.408,293.06 227.171,293.654 228.942,293.796 C 229.565,293.846 230.345,293.806 230.763,293.341 C 231.981,291.987 232.432,291.572 231.521,287.93 C 230.611,283.379 228.031,276.043 228.031,276.043 C 228.031,276.043 234.685,283.926 235.596,299.403 C 236.506,316.245 232.095,320.988 234.825,323.263 C 237.102,325.995 242.598,325.204 246.694,328.846 C 249.88,331.122 250.791,336.129 253.977,336.129 L 253.977,336.129 C 256.254,336.129 263.991,328.391 265.357,299.713 C 266.722,264.664 248.059,245.547 232.129,245.091 C 231.673,245.091 231.218,245.091 230.763,245.091 C 204.817,245.091 192.072,263.299 192.072,263.299 C 192.072,263.299 187.975,236.443 201.175,235.077 C 201.631,235.077 201.631,235.077 202.086,235.077 C 208.459,235.077 212.1,243.726 212.1,243.726 L 214.375,243.27 C 214.375,243.27 210.734,229.614 200.265,229.614 C 198.444,229.614 196.623,230.071 194.803,230.98 C 190.706,232.801 185.698,236.898 182.968,240.538 C 175.229,242.359 167.947,249.643 167.947,249.643 C 167.947,249.643 168.403,247.366 171.133,243.726 C 174.775,239.173 180.237,235.531 180.237,235.531 C 180.237,235.531 171.133,211.407 166.126,205.034 C 161.119,198.661 153.38,193.654 146.552,188.192 C 143.822,185.917 142.001,185.006 140.18,185.006 C 137.449,185.006 135.173,187.738 130.166,193.654 C 123.338,202.303 127.435,204.579 130.621,206.856 C 133.807,208.677 137.449,210.042 138.359,211.407 C 139.27,212.773 138.814,220.966 138.814,222.787 C 138.359,219.145 135.173,213.228 125.159,213.228 C 124.703,213.228 124.703,213.228 124.249,213.228 C 111.958,213.684 108.772,221.877 108.316,223.698 C 108.772,220.056 108.772,209.131 108.316,206.856 C 107.861,205.034 103.765,197.752 103.31,195.931 C 102.854,194.11 103.765,189.103 101.033,187.282 C 100.123,186.827 98.302,186.371 96.026,186.371 C 91.019,186.371 85.071,188.166 80.095,190.468 C 78.366,191.268 75.268,191.723 75.426,193.766 C 75.844,199.156 79.911,210.758 80.115,211.296 C 80.115,211.296 70.535,225.973 66.44,237.352 C 62.342,248.733 65.529,265.12 65.529,265.12 C 65.529,265.12 64.163,264.21 61.432,264.21 C 60.067,264.21 58.246,264.664 55.97,265.12 C 50.963,267.396 50.963,275.589 50.963,275.589 C 50.963,275.589 47.777,277.41 49.142,282.417 C 50.507,287.424 58.246,291.976 58.246,291.976 C 58.246,291.976 56.425,287.88 56.879,281.051 C 57.335,276.955 53.694,276.499 53.694,276.499 C 53.694,276.499 55.514,271.947 59.612,271.947 C 60.066,271.947 60.066,271.947 60.521,271.947 C 65.074,272.403 67.349,277.41 80.095,292.431 C 90.565,304.722 116.054,308.363 116.054,308.363 C 116.054,308.363 107.407,298.803 104.22,295.162 C 101.489,291.521 93.296,282.872 93.751,275.134 C 94.205,270.582 99.212,264.664 102.854,260.568 C 105.131,257.836 105.586,255.561 105.586,255.561 L 100.123,247.368 C 100.123,247.368 110.137,234.622 117.875,234.166 C 117.875,234.166 117.875,234.166 117.875,234.166 C 125.159,234.166 131.531,239.629 139.269,243.726 C 142.001,245.091 145.186,245.547 147.917,245.547 C 152.924,245.547 156.566,244.181 156.566,244.181 C 156.566,244.181 159.752,255.105 160.208,265.12 C 160.663,278.775 153.38,280.596 156.112,301.08 C 152.924,295.617 150.194,287.424 153.836,271.947 C 156.112,263.299 151.104,250.554 151.104,250.554 C 151.104,250.554 149.738,251.01 147.463,251.01 C 146.096,251.01 143.822,251.01 141.545,250.554 C 134.717,249.189 124.247,240.994 119.696,240.084 C 119.24,240.084 119.24,240.084 118.786,240.084 C 112.868,240.084 107.405,246.912 107.405,246.912 L 119.696,272.403 L 109.226,260.112 C 109.226,260.112 108.316,261.933 106.04,265.575 C 103.763,269.217 99.212,272.403 99.212,276.499 C 99.212,280.596 106.952,291.976 115.145,300.624 C 122.882,309.273 131.075,319.287 134.717,320.198 C 136.538,320.652 136.538,320.652 143.366,321.563 C 152.47,322.929 156.566,324.75 156.566,324.75 L 142.001,324.294 C 142.456,324.294 150.649,342.502 177.961,342.502 Z M 240.67,319.391 C 242.491,319.391 245.223,320.301 247.953,322.577 C 251.594,325.308 254.326,330.77 253.416,332.136 C 253.416,332.136 253.416,332.591 252.96,332.591 C 251.595,332.591 249.319,327.584 246.132,325.308 C 243.402,323.032 238.849,321.666 238.849,321.666 C 238.849,321.666 237.939,321.666 238.395,320.301 C 238.849,319.845 239.305,319.391 240.67,319.391 Z M 172.498,301.535 C 172.498,301.535 176.596,309.728 179.326,312.004 C 182.513,314.736 187.975,314.736 187.975,314.736 L 187.975,314.736 C 187.975,314.736 183.424,316.101 179.782,316.101 C 178.416,316.101 177.05,316.101 176.14,315.191 C 173.863,313.825 172.498,301.535 172.498,301.535 Z M 180.237,290.155 C 180.237,290.155 182.057,291.976 182.968,292.887 C 183.877,293.796 184.789,294.252 184.789,294.252 C 184.789,293.796 185.244,292.431 186.609,291.52 C 188.43,289.701 189.796,289.245 189.796,289.245 C 189.796,289.245 188.43,287.88 187.975,286.513 C 187.064,285.148 186.609,283.327 186.609,283.327 C 186.609,283.327 190.251,287.424 194.347,290.61 C 200.265,295.162 206.182,297.438 206.182,297.438 C 206.182,297.438 204.361,297.438 202.541,296.527 C 200.72,296.073 200.265,295.617 200.265,295.617 C 200.265,295.617 200.265,297.894 198.443,299.713 C 197.08,301.534 195.257,301.99 195.257,301.99 C 195.257,301.99 195.257,302.445 197.08,302.901 C 198.899,303.355 199.81,303.811 199.81,303.811 L 199.81,303.811 C 199.354,303.811 194.347,303.811 188.885,300.169 C 183.424,296.982 180.237,290.155 180.237,290.155 Z M 177.961,347.508 C 147.463,347.508 137.903,327.026 137.449,326.115 C 136.417,325.629 135.235,325.293 133.807,325.205 C 130.166,324.294 126.524,321.108 120.607,313.825 L 115.6,312.915 C 114.689,312.915 91.011,310.164 75.998,295.162 C 71.029,290.197 63.708,280.14 62.342,278.775 C 62.342,279.687 62.319,285.869 63.252,289.245 C 64.791,294.816 67.821,299.579 70.836,304.839 C 66.283,302.552 62.061,300.5 55.761,296.965 C 50.478,294.206 45.5,290.61 43.679,283.782 C 42.314,278.775 43.679,275.589 45.5,273.313 C 45.956,269.672 47.777,262.844 53.694,260.568 C 55.97,259.657 57.335,259.203 59.156,259.203 C 58.7,252.829 58.246,243.27 61.432,235.531 C 65.074,225.973 71.446,215.504 74.177,211.407 C 73.66,207.766 68.657,194.471 68.886,191.74 C 69.336,185.515 98.877,177.156 102.944,181.332 C 107.225,185.816 107.407,192.289 107.407,195.021 C 107.407,195.021 107.407,195.475 107.407,195.931 C 107.861,196.842 111.958,205.035 111.958,206.856 C 111.958,207.766 112.414,209.131 112.414,210.952 C 115.145,209.587 118.786,208.677 122.428,208.677 C 121.517,207.31 120.607,205.945 120.151,203.67 C 119.696,200.028 121.062,195.931 125.159,190.923 C 130.621,184.096 134.263,180 139.27,180 C 142.912,180 146.098,182.275 148.828,184.551 C 150.194,185.461 151.559,186.827 152.926,187.738 C 158.387,192.289 164.305,196.842 168.857,202.303 C 173.409,208.221 180.692,225.973 182.968,232.346 C 185.698,230.071 188.43,227.794 191.161,226.884 C 193.891,225.973 196.623,225.063 198.899,225.063 C 205.273,225.063 210.279,228.25 214.375,234.622 C 216.196,237.354 217.107,240.084 217.562,241.449 C 221.203,240.54 225.3,240.084 229.397,240.084 C 229.852,240.084 230.308,240.084 230.763,240.084 C 238.956,240.084 247.149,244.181 253.977,251.464 C 264.447,262.844 269.91,280.14 268.999,300.169 C 267.633,328.847 259.894,342.047 252.157,342.047 C 252.157,342.047 251.701,342.047 251.701,342.047 C 247.149,341.592 244.873,338.405 243.508,336.129 C 243.052,335.219 242.143,333.854 241.687,333.398 C 240.322,332.487 238.956,332.033 237.59,331.577 C 235.769,330.666 233.494,330.212 231.218,327.48 C 228.031,324.294 228.941,320.198 229.852,316.101 C 230.762,312.004 232.129,306.543 231.673,297.894 C 231.673,297.894 231.673,297.894 231.673,297.894 C 231.055,297.859 229.694,298.306 228.487,299.259 C 228.487,299.259 225.3,303.356 223.48,304.266 C 224.389,304.722 224.845,305.632 225.755,306.543 C 227.121,309.728 226.21,313.37 223.48,317.466 C 220.294,321.563 216.632,322.418 213.466,325.205 C 212.822,325.772 212.045,326.253 211.645,327.026 C 207.547,332.487 197.078,346.598 179.782,347.508 C 180.237,347.508 178.871,347.508 177.961,347.508 L 177.961,347.508 L 177.961,347.508 Z" stroke-linejoin="miter" stroke="none" fill-rule="evenodd" stroke-width="4.551" fill="#333333" marker-start="none" marker-end="none" stroke-miterlimit="79.8403193612775"/>
    <path d="M 158.048,315.724 C 158.048,315.724 155.316,314.814 149.4,313.903 C 143.937,312.994 139.84,313.449 137.109,312.083 C 133.013,309.807 131.192,306.166 129.371,300.247 C 127.095,293.42 127.551,284.772 127.551,284.772 C 127.551,284.772 130.737,297.061 133.923,301.614 C 136.2,305.254 137.565,306.166 137.565,306.166 C 137.565,306.166 136.654,303.889 137.109,302.068 C 137.565,297.972 138.93,294.786 138.93,294.786 C 138.93,294.786 139.384,303.435 142.572,307.531 C 144.393,309.807 147.123,311.173 150.31,312.083 C 153.496,312.994 158.048,315.724 158.048,315.724 Z" stroke-linejoin="miter" stroke="none" fill-rule="evenodd" stroke-width="4.551" fill="#333333" marker-start="none" marker-end="none" stroke-miterlimit="79.8403193612775"/>
    <g id="Group" fill="#000000" stroke-linejoin="miter" stroke="none" stroke-width="8.373" stroke-miterlimit="79.8403193612775">
     <path d="M 401.291,189.154 C 394.463,197.803 398.56,200.079 401.746,202.356 C 404.932,204.177 408.574,205.542 409.484,206.907 C 410.395,208.273 409.939,216.466 409.939,218.287 C 409.484,214.645 406.298,208.728 396.284,208.728 L 395.374,208.728 C 383.083,209.184 379.897,217.377 379.441,219.198 C 379.897,215.556 379.897,204.631 379.441,202.356 C 378.986,200.534 374.89,193.252 374.435,191.431 C 373.979,189.61 374.89,184.603 372.158,182.782 C 371.248,182.327 369.427,181.871 367.151,181.871 C 362.144,181.871 356.196,183.666 351.22,185.968 C 349.491,186.768 346.393,187.223 346.551,189.266 C 346.969,194.656 351.036,206.258 351.24,206.796 C 351.24,206.796 341.66,221.473 337.565,232.852 C 333.467,244.233 336.654,260.62 336.654,260.62 C 336.654,260.62 335.288,259.71 332.557,259.71 C 331.192,259.71 329.371,260.164 327.095,260.62 C 322.088,262.896 322.088,271.089 322.088,271.089 C 322.088,271.089 318.902,272.91 320.267,277.917 C 321.632,282.924 329.371,287.476 329.371,287.476 C 329.371,287.476 327.55,283.38 328.004,276.551 C 328.46,272.455 324.819,271.999 324.819,271.999 C 324.819,271.999 326.639,267.447 330.737,267.447 L 331.646,267.447 C 336.199,267.903 338.474,272.91 351.22,287.931 C 361.69,300.222 387.179,303.863 387.179,303.863 C 387.179,303.863 378.532,294.303 375.345,290.662 C 372.614,287.021 364.421,278.372 364.876,270.634 C 365.33,266.082 370.337,260.164 373.979,256.068 C 376.256,253.336 376.711,251.061 376.711,251.061 L 371.248,242.868 C 371.248,242.868 381.262,230.122 389,229.666 C 396.284,229.666 402.656,235.129 410.394,239.226 C 413.126,240.591 416.311,241.047 419.042,241.047 C 424.049,241.047 427.691,239.681 427.691,239.681 C 427.691,239.681 430.877,250.605 431.333,260.62 C 431.788,274.275 424.505,276.096 427.237,296.58 C 424.049,291.117 421.319,282.924 424.961,267.447 C 427.237,258.799 422.229,246.054 422.229,246.054 C 422.229,246.054 420.863,246.51 418.588,246.51 C 417.221,246.51 414.947,246.51 412.67,246.054 C 405.842,244.689 395.372,236.494 390.821,235.584 L 389.911,235.584 C 383.993,235.584 378.53,242.412 378.53,242.412 L 390.821,267.903 L 380.351,255.612 C 380.351,255.612 379.441,257.433 377.165,261.075 C 374.888,264.717 370.337,267.903 370.337,271.999 C 370.337,276.096 378.077,287.476 386.27,296.124 C 394.007,304.773 402.2,314.787 405.842,315.698 C 407.663,316.152 407.663,316.152 414.491,317.063 C 423.595,318.429 427.691,320.25 427.691,320.25 L 413.126,319.794 C 413.581,319.794 421.774,338.002 449.086,338.002 L 452.272,338.002 C 468.658,337.092 478.218,322.526 480.949,318.884 L 480.493,318.884 C 478.218,318.884 474.577,316.608 474.577,316.608 L 478.672,316.608 C 480.493,316.608 481.859,316.608 483.225,316.152 C 485.956,315.242 488.232,313.878 491.419,309.78 C 493.695,307.049 494.149,303.863 491.419,303.863 L 490.053,303.863 C 485.5,303.863 484.591,302.952 482.314,302.043 C 482.77,302.043 483.679,302.496 484.591,302.496 C 486.412,302.496 488.445,302.461 489.356,298.819 C 489.393,296.157 489.131,295.033 487.781,294.695 C 488.801,295.094 489.231,295.169 491.874,295.214 C 493.695,295.214 495.739,294.112 496.425,292.482 C 497.127,290.813 497.898,289.925 495.168,287.195 C 496.533,288.56 498.296,289.154 500.067,289.296 C 500.69,289.346 501.47,289.306 501.888,288.841 C 503.106,287.487 503.557,287.072 502.646,283.43 C 501.736,278.879 499.156,271.543 499.156,271.543 C 499.156,271.543 505.81,279.426 506.721,294.903 C 507.631,311.745 503.22,316.488 505.95,318.763 C 508.227,321.495 513.723,320.704 517.819,324.346 C 521.005,326.622 521.916,331.629 525.102,331.629 C 527.379,331.629 535.116,323.891 536.482,295.213 C 537.847,260.164 519.184,241.047 503.254,240.591 L 501.888,240.591 C 475.942,240.591 463.197,258.799 463.197,258.799 C 463.197,258.799 459.1,231.943 472.3,230.577 L 473.211,230.577 C 479.584,230.577 483.225,239.226 483.225,239.226 L 485.5,238.77 C 485.5,238.77 481.859,225.114 471.39,225.114 C 469.569,225.114 467.748,225.571 465.928,226.48 C 461.831,228.301 456.823,232.398 454.093,236.038 C 446.354,237.859 439.072,245.143 439.072,245.143 C 439.072,245.143 439.528,242.866 442.258,239.226 C 445.9,234.673 451.362,231.031 451.362,231.031 C 451.362,231.031 442.258,206.907 437.251,200.534 C 432.244,194.161 424.505,189.154 417.677,183.692 C 414.947,181.417 413.126,180.506 411.305,180.506 C 408.574,180.506 406.298,183.238 401.291,189.154 Z M 465.472,286.11 C 471.39,290.662 477.307,292.938 477.307,292.938 C 477.307,292.938 475.486,292.938 473.666,292.027 C 471.845,291.573 471.39,291.117 471.39,291.117 C 471.39,291.117 471.39,293.394 469.568,295.213 C 468.205,297.034 466.382,297.49 466.382,297.49 C 466.382,297.49 466.382,297.945 468.205,298.401 C 470.024,298.855 470.935,299.311 470.935,299.311 C 470.479,299.311 465.472,299.311 460.01,295.669 C 454.549,292.482 451.362,285.655 451.362,285.655 C 451.362,285.655 453.182,287.476 454.093,288.387 C 455.002,289.296 455.914,289.752 455.914,289.752 C 455.914,289.296 456.369,287.931 457.734,287.02 C 459.555,285.201 460.921,284.745 460.921,284.745 C 460.921,284.745 459.555,283.38 459.1,282.013 C 458.189,280.648 457.734,278.827 457.734,278.827 C 457.734,278.827 461.376,282.924 465.472,286.11 Z M 405.048,297.114 C 407.325,300.754 408.69,301.666 408.69,301.666 C 408.69,301.666 407.779,299.389 408.234,297.568 C 408.69,293.472 410.055,290.286 410.055,290.286 C 410.055,290.286 410.509,298.935 413.697,303.031 C 415.518,305.307 418.248,306.673 421.435,307.583 C 424.621,308.494 429.173,311.224 429.173,311.224 C 429.173,311.224 426.441,310.314 420.525,309.403 C 415.062,308.494 410.965,308.949 408.234,307.583 C 404.138,305.307 402.317,301.666 400.496,295.747 C 398.22,288.92 398.676,280.272 398.676,280.272 C 398.676,280.272 401.862,292.561 405.048,297.114 Z M 450.451,307.504 C 453.638,310.236 459.1,310.236 459.1,310.236 C 459.1,310.236 454.549,311.601 450.907,311.601 C 449.541,311.601 448.175,311.601 447.265,310.691 C 444.988,309.325 443.623,297.035 443.623,297.035 C 443.623,297.035 447.721,305.228 450.451,307.504 Z M 519.078,318.077 C 522.719,320.808 525.451,326.27 524.541,327.636 C 524.541,327.636 524.541,328.091 524.085,328.091 C 522.72,328.091 520.444,323.084 517.257,320.808 C 514.527,318.532 509.974,317.166 509.974,317.166 C 509.974,317.166 509.064,317.166 509.52,315.801 C 509.974,315.345 510.43,314.891 511.795,314.891 C 513.616,314.891 516.348,315.801 519.078,318.077 Z" marker-start="none" marker-end="none"/>
     <path d="M 322.355,214.593 C 322.355,214.593 320.08,217.325 323.266,221.876 C 326.452,225.972 331.459,231.891 331.459,231.891 L 332.054,232.349 C 332.211,231.904 332.378,231.465 332.557,231.031 C 336.199,221.473 342.571,211.004 345.302,206.907 C 345.223,206.356 345.042,205.584 344.793,204.662 C 343.18,202.883 341.402,201.393 339.199,201.393 L 337.831,201.393 C 331.052,201.393 322.355,214.593 322.355,214.593 Z" marker-start="none" marker-end="none"/>
     <path d="M 456.207,186.975 L 438.91,187.017 C 435.723,187.025 436.185,190.21 436.185,190.21 L 435.888,193.42 C 437.333,194.823 438.71,196.278 439.982,197.803 C 443.528,202.413 448.733,214.208 451.935,222.208 C 454.728,218.489 455.766,216.159 458.083,209.73 C 458.985,206.54 458.507,197.439 458.507,197.439 C 458.507,197.439 460.777,194.701 460.77,191.972 C 460.764,189.24 458.937,186.968 456.207,186.975 Z" marker-start="none" marker-end="none"/>
    </g>
   </g>
  </g>
 </g>
</svg>
